<svg width="256" height="256" viewBox="0 0 256 256" fill="none" xmlns="http://www.w3.org/2000/svg">
<g clipPath="url(#clip0_52_18)">
<path d="M196 0H60C26.8629 0 0 26.8629 0 60V196C0 229.137 26.8629 256 60 256H196C229.137 256 256 229.137 256 196V60C256 26.8629 229.137 0 196 0Z" fill="black"/>
<path fill-rule="evenodd" clipRule="evenodd" d="M117.919 71.799C112.722 62.863 99.729 62.863 94.533 71.799L37.893 169.185C32.697 178.121 39.193 189.29 49.587 189.29H93.802C89.361 185.409 87.716 178.694 91.077 172.933L133.973 99.403L117.919 71.798V71.799Z" fill="white"/>
<path d="M153.807 93.16C158.108 85.85 168.86 85.85 173.161 93.16L220.034 172.84C224.335 180.151 218.96 189.29 210.358 189.29H116.61C108.008 189.29 102.632 180.151 106.933 172.84L153.807 93.16Z" fill="white"/>
</g>
<defs>
<clipPath id="clip0_52_18">
<rect width="256" height="256" fill="white"/>
</clipPath>
</defs>
</svg>
